<?xml version="1.0" encoding="iso-8859-1"?>
<!-- Generator: Adobe Illustrator 19.0.0, SVG Export Plug-In . SVG Version: 6.00 Build 0)  -->
<svg version="1.1" id="Capa_1" xmlns="http://www.w3.org/2000/svg" xmlns:xlink="http://www.w3.org/1999/xlink" x="0px" y="0px"
	 viewBox="0 0 480 480" style="enable-background:new 0 0 480 480;" xml:space="preserve">
<g>
	<g>
		<path d="M352,0H128c-13.232,0-24,10.768-24,24v432c0,13.232,10.768,24,24,24h224c13.232,0,24-10.768,24-24V24
			C376,10.768,365.232,0,352,0z M360,456c0,4.408-3.584,8-8,8H128c-4.416,0-8-3.592-8-8V24c0-4.408,3.584-8,8-8h224
			c4.416,0,8,3.592,8,8V456z"/>
	</g>
</g>
<g>
	<g>
		<path d="M336,64H144c-4.424,0-8,3.584-8,8v288c0,4.416,3.576,8,8,8h192c4.424,0,8-3.584,8-8V72C344,67.584,340.424,64,336,64z
			 M328,352H152V80h176V352z"/>
	</g>
</g>
<g>
	<g>
		<rect x="208" y="32" width="64" height="16"/>
	</g>
</g>
<g>
	<g>
		<rect x="176" y="32" width="16" height="16"/>
	</g>
</g>
<g>
	<g>
		<rect x="288" y="32" width="16" height="16"/>
	</g>
</g>
<g>
	<g>
		<path d="M240,384c-17.648,0-32,14.352-32,32s14.352,32,32,32s32-14.352,32-32S257.648,384,240,384z M240,432
			c-8.824,0-16-7.176-16-16c0-8.824,7.176-16,16-16c8.824,0,16,7.176,16,16C256,424.824,248.824,432,240,432z"/>
	</g>
</g>
<g>
	<g>
		<rect x="176" y="216" width="32" height="16"/>
	</g>
</g>
<g>
	<g>
		<rect x="224" y="216" width="80" height="16"/>
	</g>
</g>
<g>
	<g>
		<rect x="176" y="248" width="80" height="16"/>
	</g>
</g>
<g>
	<g>
		<rect x="272" y="248" width="32" height="16"/>
	</g>
</g>
<g>
	<g>
		<rect x="176" y="280" width="32" height="16"/>
	</g>
</g>
<g>
	<g>
		<rect x="224" y="280" width="80" height="16"/>
	</g>
</g>
<g>
	<g>
		<rect x="176" y="312" width="80" height="16"/>
	</g>
</g>
<g>
	<g>
		<rect x="272" y="312" width="32" height="16"/>
	</g>
</g>
<g>
	<g>
		<path d="M280,128h-16v-16c0-4.416-3.576-8-8-8h-32c-4.424,0-8,3.584-8,8v16h-16c-4.424,0-8,3.584-8,8v32c0,4.416,3.576,8,8,8h16
			v16c0,4.416,3.576,8,8,8h32c4.424,0,8-3.584,8-8v-16h16c4.424,0,8-3.584,8-8v-32C288,131.584,284.424,128,280,128z M272,160h-16
			c-4.424,0-8,3.584-8,8v16h-16v-16c0-4.416-3.576-8-8-8h-16v-16h16c4.424,0,8-3.584,8-8v-16h16v16c0,4.416,3.576,8,8,8h16V160z"/>
	</g>
</g>
<g>
</g>
<g>
</g>
<g>
</g>
<g>
</g>
<g>
</g>
<g>
</g>
<g>
</g>
<g>
</g>
<g>
</g>
<g>
</g>
<g>
</g>
<g>
</g>
<g>
</g>
<g>
</g>
<g>
</g>
</svg>
